<svg width="440" height="834" viewBox="0 0 440 834" fill="none" xmlns="http://www.w3.org/2000/svg">
<g opacity="0.05">
<path d="M0 209.706V209.051L175.462 5.12252e-06L350 0L175 208.5L350 417H173.987L0 209.706Z" fill="#82869A"/>
<path d="M0 626.706V626.051L175.462 417L350 417L175 625.5L350 834H173.987L0 626.706Z" fill="#82869A"/>
</g>
<path opacity="0.2" d="M265.695 417.5L90.5 626.232V626.523L264.22 833.5H438.928L264.617 625.821L264.348 625.5L264.617 625.179L438.928 417.5H265.695ZM265.695 0.5L90.5 209.232V209.523L264.22 416.5H438.928L264.617 208.821L264.348 208.5L264.617 208.179L438.928 0.5H265.695Z" stroke="#FF5E3A"/>
</svg>
