<svg width="90" height="60" viewBox="0 0 90 60" fill="none" xmlns="http://www.w3.org/2000/svg">
<path d="M57.5701 29.3878C57.5701 44.6038 45.235 56.9388 30.019 56.9388C14.8032 56.9388 2.46808 44.6038 2.46808 29.3878C2.46808 14.1718 14.8032 1.83679 30.019 1.83679C45.235 1.83679 57.5701 14.1718 57.5701 29.3878Z" fill="#A2A3AD"/>
<path d="M87.2821 29.3878C87.2821 44.6038 75.0678 56.9388 60.0011 56.9388C44.9343 56.9388 32.7202 44.6038 32.7202 29.3878C32.7202 14.1718 44.9343 1.83679 60.0011 1.83679C75.0678 1.83679 87.2821 14.1718 87.2821 29.3878Z" fill="#CCCED8"/>
<path d="M45.0838 52.459C52.6027 47.5394 57.5701 39.0438 57.5701 29.3877C57.5701 19.7319 52.6027 11.236 45.0838 6.31653C37.6388 11.236 32.7202 19.7319 32.7202 29.3877C32.7202 39.0438 37.6388 47.5394 45.0838 52.459Z" fill="#A2A3AD"/>
</svg>
