<svg width="61" height="60" viewBox="0 0 61 60" fill="none" xmlns="http://www.w3.org/2000/svg">
<path d="M30.6612 56.964C23.5065 56.964 16.6445 54.1244 11.582 49.0686C6.51958 44.0129 3.67073 37.1545 3.66119 30V2.96399H57.6612V30C57.6517 37.1545 54.8028 44.0129 49.7403 49.0686C44.6779 54.1244 37.8158 56.964 30.6612 56.964Z" stroke="#A2A3AD" stroke-width="1.6" stroke-miterlimit="10"/>
<path d="M30.6612 52.956C24.3182 52.956 18.235 50.4364 13.7499 45.9512C9.26483 41.4661 6.74512 35.383 6.74512 29.04V5.12402H54.5651V29.04C54.5651 35.3809 52.0471 41.4622 47.5645 45.9469C43.082 50.4317 37.0019 52.9529 30.6612 52.956Z" stroke="#A2A3AD" stroke-width="1.6" stroke-miterlimit="10"/>
<path d="M30.6611 48.9361C27.9214 48.9423 25.2074 48.4082 22.6743 47.3641C20.1413 46.32 17.8391 44.7866 15.8997 42.8515C13.9601 40.9165 12.4214 38.6178 11.3715 36.0872C10.3215 33.5567 9.78112 30.8438 9.78113 28.1041V7.28406H51.4811V28.1041C51.4827 30.8391 50.9453 33.5478 49.8998 36.0752C48.8542 38.6025 47.3208 40.8992 45.3873 42.8337C43.4538 44.7684 41.1581 46.3031 38.6314 47.3501C36.1046 48.3972 33.3963 48.9361 30.6611 48.9361Z" stroke="#A2A3AD" stroke-width="1.6" stroke-miterlimit="10"/>
<path d="M30.6611 44.9161C25.9562 44.9161 21.4437 43.048 18.1156 39.7222C14.7875 36.3964 12.9163 31.8851 12.9131 27.1801V9.43213H48.3971V27.1801C48.3971 31.884 46.5285 36.3953 43.2023 39.7213C39.8762 43.0475 35.365 44.9161 30.6611 44.9161Z" stroke="#A2A3AD" stroke-width="1.6" stroke-miterlimit="10"/>
<path d="M30.6611 40.9079C26.7719 40.9079 23.0421 39.363 20.2921 36.613C17.5421 33.8629 15.9971 30.1331 15.9971 26.2439V11.5919H45.3131V26.2439C45.3131 30.1309 43.7698 33.859 41.0224 36.6087C38.2749 39.3583 34.5482 40.9048 30.6611 40.9079Z" stroke="#A2A3AD" stroke-width="1.6" stroke-miterlimit="10"/>
<path d="M30.6612 36.888C27.5921 36.888 24.6485 35.6695 22.4772 33.5005C20.3058 31.3314 19.0844 28.3891 19.0812 25.32V13.752H42.1812V25.32C42.1781 28.3786 40.9649 31.3119 38.8065 33.4794C36.6481 35.6467 33.7199 36.8721 30.6612 36.888Z" stroke="#A2A3AD" stroke-width="1.6" stroke-miterlimit="10"/>
<path d="M30.6612 32.88C28.4079 32.88 26.2468 31.9849 24.6536 30.3916C23.0602 28.7983 22.1652 26.6373 22.1652 24.384V15.9H39.1452V24.384C39.1452 26.6352 38.2518 28.7944 36.661 30.3874C35.0703 31.9804 32.9124 32.8768 30.6612 32.88Z" stroke="#A2A3AD" stroke-width="1.6" stroke-miterlimit="10"/>
<path d="M30.6612 28.8601C29.2291 28.8601 27.8556 28.2911 26.8428 27.2785C25.8301 26.2658 25.2612 24.8923 25.2612 23.4601V18.0601H36.0612V23.4601C36.058 24.8913 35.488 26.263 34.4761 27.275C33.464 28.2871 32.0924 28.8569 30.6612 28.8601Z" stroke="#A2A3AD" stroke-width="1.6" stroke-miterlimit="10"/>
</svg>
