<svg width="61" height="60" viewBox="0 0 61 60" fill="none" xmlns="http://www.w3.org/2000/svg">
<path d="M33.2181 48.1674C33.272 42.6603 31.8758 38.1819 30.0998 38.1645C28.3236 38.1472 26.8402 42.5975 26.7865 48.1046C26.7326 53.6117 28.1288 58.0902 29.9048 58.1075C31.6809 58.1249 33.1643 53.6746 33.2181 48.1674Z" fill="#A2A3AD"/>
<path d="M22.9175 46.9166C25.9404 42.3129 27.1873 37.7906 25.7027 36.8157C24.2179 35.8409 20.5638 38.7825 17.541 43.3862C14.5181 47.9899 13.2712 52.5121 14.7558 53.4871C16.2406 54.462 19.8946 51.5203 22.9175 46.9166Z" fill="#A2A3AD"/>
<path d="M14.9162 40.3117C19.9482 38.0734 23.4423 34.9433 22.7204 33.3205C21.9986 31.6976 17.3342 32.1965 12.3021 34.4349C7.27005 36.6731 3.77597 39.8032 4.49783 41.4261C5.21968 43.049 9.88413 42.55 14.9162 40.3117Z" fill="#A2A3AD"/>
<path d="M22.1164 28.7694C22.3866 27.0139 18.193 24.9116 12.7498 24.0738C7.30645 23.2359 2.67476 23.9799 2.40457 25.7354C2.13438 27.4909 6.32799 29.593 11.7713 30.4309C17.2145 31.2687 21.8463 30.5247 22.1164 28.7694Z" fill="#A2A3AD"/>
<path d="M24.0707 24.5874C25.247 23.2566 22.8551 19.2211 18.7285 15.574C14.6018 11.9268 10.3029 10.0491 9.1267 11.38C7.95049 12.7109 10.3423 16.7464 14.4691 20.3935C18.5957 24.0407 22.8946 25.9183 24.0707 24.5874Z" fill="#A2A3AD"/>
<path d="M27.9628 22.1433C29.6718 21.6597 29.8416 16.9717 28.3421 11.6724C26.8426 6.37312 24.2415 2.46924 22.5324 2.95285C20.8234 3.43646 20.6536 8.12443 22.1531 13.4238C23.6526 18.723 26.2538 22.6269 27.9628 22.1433Z" fill="#A2A3AD"/>
<path d="M38.5312 13.5887C40.135 8.31998 40.0577 3.62956 38.3585 3.11235C36.6593 2.59513 33.9818 6.44696 32.378 11.7157C30.7743 16.9843 30.8516 21.6748 32.5508 22.192C34.25 22.7092 36.9275 18.8574 38.5312 13.5887Z" fill="#A2A3AD"/>
<path d="M46.0828 20.7079C50.28 17.1421 52.7504 13.1541 51.6003 11.8005C50.4503 10.4469 46.1156 12.2403 41.9184 15.806C37.7212 19.3718 35.251 23.3597 36.401 24.7133C37.5509 26.0669 41.8857 24.2737 46.0828 20.7079Z" fill="#A2A3AD"/>
<path d="M48.5798 30.7823C54.0386 30.052 58.2728 28.0329 58.0372 26.2723C57.8018 24.5119 53.1856 23.6769 47.7268 24.4071C42.2681 25.1374 38.0338 27.1565 38.2694 28.917C38.5049 30.6774 43.121 31.5126 48.5798 30.7823Z" fill="#A2A3AD"/>
<path d="M55.6216 41.9292C56.3753 40.3209 52.9437 37.1226 47.9567 34.7854C42.9699 32.4483 38.3161 31.8576 37.5624 33.4658C36.8087 35.0742 40.2403 38.2725 45.2273 40.6096C50.2141 42.9466 54.8679 43.5375 55.6216 41.9292Z" fill="#A2A3AD"/>
<path d="M45.1318 53.7959C46.6354 52.8505 45.4779 48.3044 42.5464 43.6421C39.6149 38.9797 36.0195 35.9666 34.5159 36.912C33.0123 37.8574 34.1698 42.4034 37.1013 47.0658C40.0328 51.7282 43.6282 54.7414 45.1318 53.7959Z" fill="#A2A3AD"/>
</svg>
