<svg width="91" height="60" viewBox="0 0 91 60" fill="none" xmlns="http://www.w3.org/2000/svg">
<path d="M30.1811 60H39.2896L36.6379 57.3483C35.9347 56.6451 34.9808 56.25 33.9863 56.25H30.1811C15.6836 56.25 3.93112 44.4975 3.93112 30C3.93112 15.5025 15.6836 3.75002 30.1811 3.75H60.1811C74.6786 3.75 86.4311 15.5025 86.4311 30C86.4311 44.4975 74.6786 56.25 60.1811 56.25H48.9587C47.4668 56.25 46.0361 55.6573 44.9812 54.6025L41.8747 51.4959C40.1165 49.7378 37.7318 48.75 35.2454 48.75H30.1811C19.8257 48.75 11.4311 40.3554 11.4311 30C11.4311 19.6446 19.8257 11.25 30.1811 11.25H60.1811C70.5365 11.25 78.9311 19.6446 78.9311 30C78.9311 40.3554 70.5365 48.75 60.1811 48.75H52.9753C51.4834 48.75 50.0527 48.1573 48.9977 47.1025L45.8911 43.9959C44.1329 42.2378 41.7484 41.25 39.262 41.25H30.1811C23.968 41.25 18.9311 36.2132 18.9311 30C18.9311 23.7868 23.968 18.75 30.1811 18.75H60.1811C66.3943 18.75 71.4311 23.7868 71.4311 30C71.4311 36.1374 66.5164 41.127 60.4079 41.2477L60.4067 41.25H57.6628C56.1709 41.25 54.7402 40.6573 53.6852 39.6025L50.5786 36.4959C49.136 35.0532 47.2717 34.1293 45.2753 33.8442L45.1811 33.75H30.1811C28.1101 33.75 26.4311 32.071 26.4311 30C26.4311 27.9289 28.1101 26.25 30.1811 26.25H60.1811C62.2522 26.25 63.9311 27.9289 63.9311 30C63.9311 32.071 62.2522 33.75 60.1811 33.75H52.6811L55.3328 36.4017C56.036 37.1049 56.9899 37.5 57.9844 37.5H60.1811C64.3232 37.5 67.6811 34.1421 67.6811 30C67.6811 25.8579 64.3232 22.5 60.1811 22.5H30.1811C26.039 22.5 22.6811 25.8579 22.6811 30C22.6811 34.1421 26.039 37.5 30.1811 37.5H43.9495C45.4414 37.5 46.8721 38.0927 47.927 39.1475L51.0337 42.2541C52.7918 44.0122 55.1764 45 57.6628 45H61.1186V44.9712C68.9662 44.4873 75.1811 37.9693 75.1811 30C75.1811 21.7158 68.4653 15 60.1811 15H30.1811C21.8969 15 15.1811 21.7158 15.1811 30C15.1811 38.2844 21.8969 45 30.1811 45H39.262C40.7539 45 42.1846 45.5927 43.2395 46.6475L46.3462 49.7541C48.1043 51.5122 50.4889 52.5 52.9753 52.5H60.1811C72.6076 52.5 82.6811 42.4264 82.6811 30C82.6811 17.5736 72.6076 7.5 60.1811 7.5H30.1811C17.7547 7.5 7.68112 17.5736 7.68112 30C7.68112 42.4264 17.7547 52.5 30.1811 52.5H35.2454C36.7373 52.5 38.168 53.0927 39.223 54.1475L42.3296 57.2541C44.0878 59.0122 46.4723 60 48.9587 60H60.1811C76.7497 60 90.1811 46.5686 90.1811 30C90.1811 13.4314 76.7497 -1.44847e-06 60.1811 0L30.1811 6.19896e-06C13.6126 7.64743e-06 0.18112 13.4315 0.181122 30C0.181123 46.5686 13.6126 60 30.1811 60Z" fill="#A2A3AD"/>
</svg>
